<svg width="51" height="50" viewBox="0 0 51 50" fill="none" xmlns="http://www.w3.org/2000/svg">
<path d="M29.5061 34.4167H21.5444V50H29.5061V34.4167Z" fill="#FFD11A"/>
<path d="M29.5061 0H21.5444V15.5833H29.5061V0Z" fill="#FFD11A"/>
<path d="M35.0979 21.0945V28.9001H50.9929V21.0945H35.0979Z" fill="#FFD11A"/>
<path d="M0 21.1016L0 28.9072H15.895V21.1016H0Z" fill="#FFD11A"/>
<path d="M35.113 28.8769L29.4833 34.3962L40.7227 45.4151L46.3524 39.8958L35.113 28.8769Z" fill="#404040"/>
<path d="M10.2924 4.54558L4.66272 10.0649L15.9021 21.0839L21.5318 15.5646L10.2924 4.54558Z" fill="#404040"/>
<path d="M29.4638 15.5885L35.0935 21.1078L46.3329 10.0888L40.7032 4.56949L29.4638 15.5885Z" fill="#404040"/>
<path d="M4.64837 39.9197L10.2781 45.439L21.5175 34.4201L15.8878 28.9008L4.64837 39.9197Z" fill="#404040"/>
</svg>
